<svg id="audio-book-icon" version="1.1" xmlns="http://www.w3.org/2000/svg" width="26" height="32" viewBox="0 0 26 32">
<title>audio-book-icon</title>
<path d="M2.048 21.84h8.219c0.416 0.864 1.288 1.422 2.271 1.422h0.519c0.985 0 1.855-0.558 2.272-1.422h8.223c0.847 0 1.536-0.689 1.536-1.536v-14.72c0-0.847-0.689-1.536-1.536-1.536h-0.829v-0.686c0-0.565-0.459-1.024-1.024-1.024h-17.802c-0.564 0-1.024 0.459-1.024 1.024v0.686h-0.825c-0.847 0-1.536 0.689-1.536 1.536v14.72c0 0.847 0.689 1.536 1.536 1.536zM21.698 18.681h-8.386v-11.898c1.938 0.253 3.441 1.912 3.441 3.918v0.462l-0.122-0.027c-0.132-0.028-0.27-0.005-0.386 0.069s-0.195 0.189-0.224 0.322l-0.815 3.709c-0.060 0.276 0.114 0.549 0.39 0.609l1.761 0.388c0.091 0.019 0.183 0.029 0.276 0.029 0.619 0 1.147-0.424 1.282-1.031l0.471-2.145c0.155-0.704-0.291-1.405-0.997-1.562l-0.613-0.135v-0.687c0-2.572-1.96-4.694-4.465-4.953v-2.386h8.387l-0.001 15.319zM16.912 12.247l1.258 0.277c0.157 0.035 0.253 0.184 0.218 0.341l-0.471 2.145c-0.034 0.155-0.206 0.251-0.341 0.223l-1.259-0.277 0.596-2.708zM3.897 3.362h8.392v2.386c-2.507 0.256-4.47 2.38-4.47 4.954v0.687l-0.614 0.136c-0.342 0.076-0.634 0.28-0.822 0.574-0.189 0.295-0.25 0.646-0.175 0.987l0.471 2.143c0.128 0.6 0.667 1.035 1.283 1.035 0.092 0 0.185-0.010 0.28-0.030l1.754-0.387c0.275-0.061 0.45-0.334 0.389-0.609l-0.815-3.709c-0.029-0.133-0.11-0.248-0.225-0.322s-0.254-0.097-0.386-0.069l-0.117 0.026v-0.461c0-2.008 1.505-3.668 3.446-3.919v11.899h-8.392v-15.319zM8.68 12.247l0.596 2.708-1.252 0.277c-0.154 0.035-0.311-0.067-0.344-0.22l-0.471-2.147c-0.017-0.075-0.003-0.151 0.037-0.214s0.106-0.109 0.18-0.126l1.254-0.277zM1.536 5.584c0-0.282 0.23-0.512 0.512-0.512h0.825v13.609c0 0.565 0.459 1.024 1.024 1.024h17.802c0.564 0 1.024-0.459 1.024-1.024v-13.609h0.829c0.282 0 0.512 0.23 0.512 0.512v14.72c0 0.282-0.23 0.512-0.512 0.512h-8.571c-0.225 0-0.424 0.147-0.489 0.362-0.194 0.634-0.771 1.060-1.434 1.060h-0.519c-0.661 0-1.237-0.424-1.437-1.066-0.068-0.212-0.265-0.356-0.488-0.356h-8.566c-0.282 0-0.512-0.23-0.512-0.512v-14.72z"></path>
</svg>