<svg id="check-icon" version="1.1" xmlns="http://www.w3.org/2000/svg" width="26" height="32" viewBox="0 0 26 32">
<title>check-icon</title>
<path d="M20.463 5.366c-0.762 0.341-1.492 0.757-2.189 1.221-1.402 0.922-2.683 2.020-3.885 3.191-1.201 1.174-2.32 2.43-3.377 3.736-0.264 0.327-1.449 1.781-1.449 1.781l-4.925-7.38-1.859 5.153 6.66 7.943c0.647-1.309 1.269-2.602 1.88-3.725 0.152-0.286 0.311-0.554 0.462-0.827 0 0 0.782-1.374 0.987-1.72 0.822-1.384 1.71-2.733 2.689-4.014 0.979-1.279 2.044-2.499 3.251-3.572 0.601-0.54 1.24-1.039 1.925-1.474 0.684-0.435 1.41-0.817 2.187-1.091-0.808 0.159-1.597 0.435-2.357 0.777z"></path>
</svg>