<svg id="comunity-icon" version="1.1" xmlns="http://www.w3.org/2000/svg" width="26" height="32" viewBox="0 0 26 32">
<title>comunity-icon</title>
<path d="M1.918 10.148v2.182c0 0.117 0.054 0.228 0.146 0.3 1.491 1.174 3.362 1.82 5.268 1.82 0.571 0 1.142-0.060 1.7-0.172 1.19 0.526 2.457 0.795 3.768 0.795 1.315 0 2.582-0.269 3.768-0.795 2.382 0.481 4.919-0.036 6.968-1.648 0.092-0.073 0.146-0.183 0.146-0.3v-2.182c0-0.32-0.159-0.612-0.443-0.791l-2.98-1.676c0.652-0.827 1.138-2.005 1.222-3.015 0.247-1.739-1.17-3.58-3.21-3.58-0.858 0-1.673 0.353-2.271 0.945-0.021 0.021-0.044 0.038-0.064 0.059-0.018 0.019-0.033 0.042-0.051 0.061-0.012 0.013-0.022 0.028-0.034 0.041-0.583-1.063-1.704-1.72-3.024-1.72-0.128 0-0.254 0.009-0.379 0.021-0.008-0-0.014-0.004-0.022-0.004-0.071 0-0.221 0.019-0.301 0.042-0.012 0.003-0.020 0.012-0.032 0.016-0.986 0.199-1.821 0.797-2.322 1.661-0.602-0.702-1.487-1.123-2.449-1.123-3.011 0-4.347 3.554-1.97 6.612l-3.007 1.67c-0.267 0.169-0.426 0.461-0.426 0.781zM16.561 13.438c-0.065 0.032-0.129 0.065-0.194 0.095l-0 0c-0 0-0.001 0.001-0.001 0.001-1.119 0.514-2.319 0.775-3.566 0.775-1.243 0-2.443-0.261-3.567-0.776-0.547-0.249-1.076-0.565-1.576-0.941v-2.212c0-0.075 0.037-0.142 0.079-0.17l3.5-1.945c0.435 0.37 0.992 0.641 1.568 0.641 0.555 0 1.155-0.275 1.581-0.65l3.457 1.942c0.064 0.041 0.1 0.107 0.1 0.183v2.211c-0.44 0.331-0.904 0.612-1.382 0.846zM22.847 10.012c0.045 0.028 0.071 0.078 0.071 0.136v1.994c-1.517 1.138-3.342 1.655-5.191 1.525 0.284-0.178 0.594-0.398 0.834-0.586 0.092-0.072 0.146-0.183 0.146-0.301v-2.4c0-0.335-0.168-0.644-0.47-0.837l-1.837-1.032 0.447-0.247c0.542 0.442 1.007 0.573 1.424 0.573 0.51 0 1.048-0.25 1.447-0.585l3.128 1.76zM18.271 1.849c1.064 0 1.998 0.695 2.328 1.651-0.642-0.076-1.269-0.393-1.724-0.88-0.082-0.088-0.199-0.134-0.32-0.119-0.119 0.013-0.226 0.081-0.287 0.184-0.436 0.73-1.15 1.218-1.963 1.356 0-0.001-0-0.001-0-0.002 0.004-0.166-0.006-0.335-0.025-0.503-0.002-0.017-0.004-0.034-0.006-0.051-0.025-0.191-0.082-0.431-0.094-0.469 0.434-0.695 1.24-1.166 2.091-1.166zM16.221 4.82c0.965-0.106 1.838-0.591 2.438-1.358 0.591 0.485 1.341 0.778 2.082 0.814-0.006 1.381-1.134 3.796-2.47 3.796-1.030 0-1.91-1.474-2.239-2.495 0.084-0.263 0.144-0.516 0.189-0.758zM16.299 7.694l-0.683 0.378-0.689-0.387c0.256-0.318 0.49-0.688 0.691-1.089 0.193 0.406 0.424 0.778 0.681 1.098zM15.269 5.453c-0.368 1.099-1.314 2.689-2.465 2.689-1.342 0-2.486-2.207-2.704-3.618 0.058-0.014 1.872 0.097 3.12-1.542 0.634 0.53 1.488 0.881 2.32 0.916 0.010 0.498-0.111 1.084-0.271 1.555zM12.826 1.235c2.142 0 2.55 1.843 2.583 1.882-0.777-0.079-1.485-0.459-1.975-0.983-0.082-0.088-0.201-0.132-0.321-0.119s-0.226 0.082-0.288 0.185c-0.424 0.718-1.090 1.224-1.86 1.439-0.297 0.083-0.619 0.121-0.899 0.118 0.105-1.404 1.23-2.523 2.759-2.523zM9.984 6.588c0.198 0.397 0.434 0.775 0.703 1.108l-0.675 0.375-0.699-0.393c0.265-0.338 0.49-0.716 0.67-1.090zM7.322 1.849c0.867 0 1.661 0.44 2.103 1.166-0.022 0.077-0.082 0.384-0.090 0.422-0.532-0.127-1.020-0.41-1.403-0.819-0.082-0.088-0.199-0.131-0.321-0.119-0.119 0.013-0.226 0.082-0.287 0.185-0.511 0.862-1.449 1.398-2.448 1.398 0.122-1.254 1.17-2.235 2.446-2.235zM4.91 4.846c1.098-0.011 2.135-0.528 2.807-1.384 0.459 0.378 1.004 0.627 1.584 0.741 0.022 0.443 0.138 0.981 0.27 1.378-0.211 0.647-0.616 1.418-1.118 1.931-0.003 0.003-0.007 0.005-0.011 0.008-0.314 0.331-0.761 0.554-1.113 0.554-1.228 0-2.189-1.933-2.419-3.227zM2.682 10.148c0-0.058 0.026-0.107 0.052-0.125l3.171-1.76c0.19 0.158 0.234 0.177 0.272 0.204l-0 0c0.373 0.248 0.715 0.372 1.182 0.372 0.497 0 0.95-0.211 1.348-0.535 0.022-0.018 0.047-0.035 0.068-0.052l0.453 0.255-1.885 1.049c-0.282 0.182-0.45 0.49-0.45 0.825v2.4c0 0.117 0.054 0.228 0.146 0.3 0.244 0.192 0.56 0.415 0.834 0.587-1.876 0.128-3.701-0.407-5.191-1.526v-1.994z"></path>
<path d="M24.468 16.484c-0.47-0.296-1.049-0.326-1.547-0.085l-4.715 2.278c-0.016-0.883-0.737-1.596-1.623-1.596l-2.704 0.001c-1.333-1.159-3.037-1.869-4.586-1.906-1.528-0.036-2.899-0.046-3.539-0.049v-0.772h-5.372v8.874h5.372v-1.063c1.473 0.845 5.347 2.963 7.185 2.963 0.042 0 0.082-0.001 0.122-0.003 3.233-0.181 10.857-5.547 11.36-5.903 0.492-0.285 0.797-0.814 0.797-1.384 0-0.554-0.28-1.060-0.75-1.355zM4.99 22.465h-3.844v-7.346h3.844v7.346zM24.028 18.567c-0.012 0.006-0.023 0.013-0.034 0.021-0.079 0.056-7.922 5.603-10.976 5.774-0.030 0.002-0.061 0.002-0.093 0.002-1.612 0-5.543-2.121-7.171-3.083v-5.391c0.637 0.003 2.001 0.013 3.521 0.049 1.415 0.034 2.987 0.71 4.204 1.807l0.109 0.099 2.996-0.001c0.475 0 0.862 0.387 0.862 0.862s-0.387 0.862-0.862 0.862h-5.503v0.764h5.503c0.527 0 0.992-0.256 1.29-0.647l5.381-2.599c0.264-0.129 0.559-0.112 0.808 0.044s0.391 0.414 0.391 0.707c0 0.302-0.163 0.58-0.426 0.728z"></path>
<path d="M12.418 9.84h0.764v0.709h-0.764v-0.709z"></path>
<path d="M12.418 11.253h0.764v0.709h-0.764v-0.709z"></path>
<path d="M12.418 12.666h0.764v0.709h-0.764v-0.709z"></path>
</svg>