<svg id="dollar-icon" version="1.1" xmlns="http://www.w3.org/2000/svg" width="22" height="32" viewBox="0 0 22 32">
<title>dollar-icon</title>
<path d="M0.433 10.994c0 0.285-0.433 0.285-0.433 0 0-6.070 4.923-10.994 10.994-10.994 6.073 0 10.994 4.923 10.994 10.994 0 0.285-0.431 0.285-0.431 0 0-4.103-6.743-4.106-6.743 0 0 0.285-0.444 0.285-0.444 0 0-4.093-6.753-4.093-6.753 0 0 0.285-0.444 0.285-0.444 0 0-4.085-6.74-4.114-6.74 0zM7.212 9.4c0.117-2.362 0.488-4.479 1.028-6.096 0.431-1.285 0.976-2.26 1.594-2.808-4.635 0.506-8.388 4.020-9.226 8.577 1.596-2.302 5.281-2.118 6.605 0.327zM14.336 9.294c-0.119-2.271-0.48-4.303-0.999-5.852-1.339-4.010-3.348-4.010-4.687 0-0.519 1.549-0.877 3.582-0.999 5.852 1.44-2.447 5.245-2.447 6.685 0zM21.38 9.073c-0.836-4.557-4.588-8.071-9.226-8.577 0.62 0.548 1.163 1.523 1.594 2.808 0.54 1.617 0.911 3.735 1.028 6.096 1.331-2.458 5.027-2.603 6.605-0.327z"></path>
<path d="M9.551 16.023v-2.232c-0.402 0.267-0.719 0.68-0.719 1.183 0 0.491 0.322 0.815 0.719 1.049zM9.984 16.716c-0.771-0.353-1.583-0.766-1.583-1.741 0-1.007 0.766-1.51 1.583-1.887v3.628z"></path>
<path d="M12.437 19.392v2.258c0.407-0.27 0.727-0.685 0.727-1.189 0-0.496-0.327-0.831-0.727-1.069zM12.006 18.697c0.773 0.358 1.591 0.784 1.591 1.765 0 1.010-0.771 1.513-1.591 1.887v-3.652z"></path>
<path d="M12.437 11.251c1.775 0.41 3.6 1.739 3.6 3.724 0 1.7-2.873 1.638-2.873 0 0-0.506-0.319-0.921-0.727-1.189v3.177c1.643 0.537 3.605 1.5 3.605 3.498 0 1.988-1.825 3.314-3.605 3.722-0.008 1.892-2.881 1.889-2.886-0.003-1.012-0.234-1.892-0.706-2.528-1.331-0.667-0.659-1.061-1.487-1.061-2.388 0-1.674 2.87-1.674 2.87 0 0 0.501 0.317 0.914 0.719 1.181v-3.174c-1.63-0.527-3.602-1.518-3.602-3.498 0-1.988 1.824-3.314 3.602-3.722 0.008-1.892 2.881-1.889 2.886 0.003zM9.984 11.256v0.345c-1.69 0.335-3.605 1.417-3.605 3.369 0 1.876 2.102 2.717 3.605 3.182v4.194c-0.812-0.371-1.583-0.872-1.583-1.884 0-1.106-2.009-1.106-2.009 0 0 0.781 0.348 1.503 0.934 2.079 0.745 0.737 1.648 1.087 2.658 1.287v0.348c0 1.331 2.022 1.331 2.022 0v-0.345c1.695-0.337 3.602-1.42 3.602-3.369 0-1.895-2.097-2.709-3.602-3.184v-4.191c0.815 0.371 1.591 0.872 1.591 1.889 0 1.077 2.006 1.121 2.006 0 0-1.949-1.905-3.034-3.597-3.371v-0.348c0-1.331-2.022-1.331-2.022 0z"></path>
</svg>