<svg id="female-student-icon" version="1.1" xmlns="http://www.w3.org/2000/svg" width="26" height="32" viewBox="0 0 26 32">
<title>female-student-icon</title>
<path d="M2.211 25.028c2.723 0 18.478 0 21.198 0 0.105-2.407-0.068-6.401-1.554-8.302l-0.054-0.068-3.248-1.624c0.071-0.237 0.105-0.454 0.119-0.613 0.016-0.191-0.010-0.371-0.079-0.534-0.536-1.277-1.67-1.948-2.293-2.235 0.19-0.381 0.313-0.791 0.372-1.209 0.353-0.099 0.637-0.378 0.73-0.749l0.379-1.534c0.067-0.271 0.025-0.551-0.119-0.79-0.062-0.103-0.142-0.189-0.233-0.264 1.069-2.418-0.721-4.697-0.819-4.817-1.939-2.087-4.388-1.697-4.518-1.674-3.535 0.737-4.899 3.434-4.129 6.598-0.228 0.252-0.324 0.602-0.239 0.946l0.381 1.535c0.092 0.369 0.374 0.647 0.725 0.747 0.108 0.766 0.434 1.459 0.912 2.017v1.216c-5.072 2.586-1.858 0.936-5.923 2.984-0.008 0.038-1.907 2.048-1.625 8.006l0.017 0.364zM22.673 24.264h-3.489v-1.459l2.307-5.26c1.156 1.91 1.199 5.558 1.181 6.719zM17.911 14.356c-0.135 1.54-0.983 1.075-1.506 2.261-0.412-0.451-0.536-0.992-0.425-1.57 0.2-1.063-0.451-1.378-0.29-2.495l0.024-0.026v-0.004c0.014-0.015 0.142-0.168 0.179-0.216 1.38 0.599 2.045 1.713 2.018 2.049zM10.506 13.145c0.641 0.443 1.414 0.704 2.246 0.704 0.784 0 1.528-0.227 2.166-0.645 0.088 0.878 0.433 1.054 0.311 1.7-0.023 0.12-0.035 0.238-0.043 0.354l-2.376 2.666-3.037-3.41 0.733-0.381v-0.988zM9.551 9.882v-1.478c0-0.544 0-2.704 0-2.598 0.37-0.681 0.874-1.175 1.5-1.471 1.678 0.945 3.609 2.356 4.904 3.776-0.001 1.808 0.005 1.813-0.007 1.962l-0.001 0.009c-0.101 1.642-1.457 3.003-3.196 3.003-1.69 0-3.094-1.321-3.195-3.019-0.005-0.061-0.006-0.122-0.006-0.184zM9.078 14.884l3.732 4.19 2.506-2.812c0.057 0.164 0.138 0.319 0.229 0.469l-2.735 3.406-4.079-5.080 0.346-0.173zM16.72 9.267v-1.18c0.034-0.038 0.318-0.364 0.285-0.325 0.016 0.598 0.081-0.108-0.285 1.506zM12.234 1.367c0.152 0.009 2.188-0.308 3.798 1.422 0.063 0.079 1.374 1.76 0.847 3.599-0.18-0.818-0.494-1.867-0.991-2.368l-0.543 0.538c0.49 0.494 0.812 1.999 0.935 2.78-2.248-2.342-5.148-3.825-5.188-3.85-0.145 0.090-1.373 0.322-2.264 2.047l-0.043 0.082v1.267c-0.038 0-0.151 0.002-0.112 0.001-0.566-2.722 0.518-4.885 3.559-5.519zM8.594 7.672l0.193 0.778v0.818l-0.321-1.292c-0.047-0.193 0.096-0.266 0.128-0.304zM8.032 15.406l4.778 5.951 3.233-4.026c0.352 0.313 0.521 0.358 1.266 0.74l-0.252-0.849c-0.064-0.216 0.189-0.562 0.341-0.721 0.341-0.184 0.625-0.446 0.837-0.77l2.638 1.319-2.454 5.595v1.619h-11.219v-1.62l-2.456-5.595 3.287-1.643zM4.129 17.546l2.308 5.258v1.459h-3.489c-0.018-1.161 0.026-4.807 1.181-6.718z"></path>
</svg>