<svg id="mobile-teacher-icon" version="1.1" xmlns="http://www.w3.org/2000/svg" width="26" height="32" viewBox="0 0 26 32">
<title>mobile-teacher-icon</title>
<path d="M23.211 0.668h-11.845c-0.771 0-1.398 0.627-1.398 1.398v4.903l-8.8 3.693c-0.1 0.042-0.167 0.136-0.175 0.244s0.046 0.211 0.138 0.266l1.122 0.672v7.157c-0.574 0.131-1.004 0.644-1.004 1.259v0.69c0 0.158 0.128 0.287 0.287 0.287h2.010c0.158 0 0.287-0.128 0.287-0.287v-0.69c0-0.614-0.431-1.127-1.005-1.258v-6.815l0.887 0.531c-0.027 0.205-0.003-0.357-0.013 3.332 0 1.213 3.106 1.862 6.266 1.899v5.586c0 0.289 0.088 0.557 0.239 0.78 0.251 0.372 0.677 0.617 1.158 0.617h11.845c0.77 0 1.397-0.627 1.397-1.397-0 0.038-0.002-1.183 0-21.469 0-0.761-0.629-1.399-1.396-1.399zM3.259 20.261v0.403h-1.436v-0.403c0-0.397 0.321-0.72 0.716-0.72 0.397 0 0.72 0.323 0.72 0.72zM23.211 24.357h-11.845c-0.284 0-0.535-0.144-0.684-0.362-0.089-0.131-0.141-0.29-0.141-0.46v-1.936h13.491v1.937c0 0.449-0.374 0.822-0.822 0.822zM24.033 21.026h-13.492v-3.074c1.543-0.018 6.27-0.357 6.27-1.901-0.002-2.317 0.004-3.257-0.007-3.337l2.573-1.541c0.093-0.056 0.146-0.159 0.138-0.266s-0.075-0.202-0.175-0.244l-8.799-3.693v-2.393h13.492v16.45zM10.255 14.148c-1.59 0-4.65 0.205-5.98 1.073 0.008-2.656-0.092-2.483 0.235-2.708 0.826-0.608 3.188-1.033 5.745-1.033 1.115 0 5.983 0.307 5.983 1.337v2.404c-1.342-0.876-4.387-1.074-5.983-1.074zM10.542 2.066c0-0.454 0.37-0.824 0.824-0.824h11.845c0.455 0 0.822 0.375 0.822 0.824v1.936h-13.491v-1.936zM10.255 7.471l8.342 3.502-2.067 1.237c-1.099-1.090-4.734-1.301-6.275-1.301-1.543 0-5.179 0.212-6.275 1.302l-2.068-1.237 8.343-3.502zM4.275 16.051c0-0.464 2.054-1.329 5.98-1.329 3.928 0 5.983 0.866 5.983 1.329s-2.055 1.33-5.983 1.33c-3.926 0-5.98-0.866-5.98-1.33z"></path>
<path d="M17.288 22.031c-0.523 0-0.948 0.425-0.948 0.948s0.425 0.948 0.948 0.948c0.523 0 0.948-0.425 0.948-0.948s-0.425-0.948-0.948-0.948zM17.288 23.354c-0.207 0-0.375-0.168-0.375-0.375s0.168-0.375 0.375-0.375c0.207 0 0.375 0.168 0.375 0.375s-0.168 0.375-0.375 0.375z"></path>
<path d="M16.195 2.336h2.186v0.573h-2.186v-0.573z"></path>
</svg>