<svg id="open-book-icon" version="1.1" xmlns="http://www.w3.org/2000/svg" width="26" height="32" viewBox="0 0 26 32">
<title>open-book-icon</title>
<path d="M3.719 6.407h7.654v0.573h-7.654v-0.573z"></path>
<path d="M4.865 8.544h6.508v0.573h-6.508v-0.573z"></path>
<path d="M3.719 10.681h7.654v0.573h-7.654v-0.573z"></path>
<path d="M4.865 12.818h6.508v0.573h-6.508v-0.573z"></path>
<path d="M3.719 14.955h7.654v0.573h-7.654v-0.573z"></path>
<path d="M4.865 17.092h6.508v0.573h-6.508v-0.573z"></path>
<path d="M14.226 6.407h7.654v0.573h-7.654v-0.573z"></path>
<path d="M14.226 8.544h6.508v0.573h-6.508v-0.573z"></path>
<path d="M14.226 10.681h7.654v0.573h-7.654v-0.573z"></path>
<path d="M14.226 12.818h6.508v0.573h-6.508v-0.573z"></path>
<path d="M14.226 14.955h7.654v0.573h-7.654v-0.573z"></path>
<path d="M14.226 17.092h6.508v0.573h-6.508v-0.573z"></path>
<path d="M24.645 5.754h-1.051v-1.578c0-0.158-0.128-0.287-0.287-0.287h-8.566c-0.836 0-1.561 0.452-1.941 1.128-0.38-0.677-1.105-1.128-1.941-1.128h-8.566c-0.158 0-0.287 0.128-0.287 0.287v1.578h-1.051c-0.158 0-0.287 0.128-0.287 0.287v15.383c0 0.158 0.128 0.287 0.287 0.287 2.877 0 20.802 0 23.69 0 0.158 0 0.287-0.128 0.287-0.287v-15.383c0-0.158-0.128-0.287-0.287-0.287zM14.741 4.463h8.28c0 2.566 0 9.326 0 15.349h-8.891c-0.394 0-0.788 0.166-1.043 0.382v-14.080c0-0.915 0.732-1.651 1.654-1.651zM2.579 4.463h8.28c0.896 0 1.621 0.697 1.651 1.588 0 0.012 0.002 0.051 0.004 0.063v14.079c-0.254-0.215-0.644-0.381-1.039-0.381h-8.895c0-6.020 0-12.783 0-15.349zM1.242 6.328h0.764v13.771c0 0.158 0.128 0.287 0.287 0.287h9.182c0.437 0 0.859 0.287 0.994 0.753h-11.226v-14.81zM24.358 21.137h-11.226c0.136-0.468 0.554-0.753 0.998-0.753h9.178c0.158 0 0.287-0.128 0.287-0.287v-13.771h0.764v14.81z"></path>
</svg>