<svg id="program-icon" version="1.1" xmlns="http://www.w3.org/2000/svg" width="26" height="32" viewBox="0 0 26 32">
<title>program-icon</title>
<path d="M23.727 4.675c0-0-0-0.001-0-0.002-0.005-0.012-0.011-0.023-0.018-0.033-0.001-0.001-0.001-0.002-0.002-0.002-0.007-0.011-0.015-0.021-0.025-0.031l-3.537-3.537c-0.009-0.009-0.019-0.017-0.030-0.024-0.002-0.002-0.005-0.003-0.007-0.004-0.009-0.005-0.017-0.010-0.027-0.014-0.003-0.001-0.005-0.003-0.008-0.003-0.023-0.009-0.048-0.014-0.073-0.015-0.002 0-0.003-0-0.004-0h-15.582c-0.115 0-0.209 0.094-0.209 0.209v21.573c0 0.014 0.001 0.027 0.004 0.041 0.001 0.006 0.003 0.011 0.005 0.017 0.002 0.007 0.004 0.015 0.007 0.022s0.006 0.013 0.010 0.019c0.003 0.005 0.006 0.012 0.009 0.017 0.007 0.011 0.015 0.020 0.024 0.029 0.001 0.001 0.001 0.002 0.002 0.002l1.593 1.593c0.082 0.082 0.214 0.082 0.296 0l1.446-1.445 1.445 1.445c0.041 0.041 0.094 0.061 0.148 0.061s0.107-0.020 0.148-0.061l1.445-1.445 1.446 1.445c0.082 0.082 0.214 0.082 0.296 0l1.445-1.445 1.445 1.445c0.082 0.082 0.214 0.082 0.295 0l1.446-1.445 1.445 1.445c0.041 0.041 0.094 0.061 0.148 0.061s0.107-0.020 0.148-0.061l1.445-1.445 1.446 1.445c0.081 0.082 0.214 0.082 0.295 0l1.593-1.593c0.003-0.003 0.005-0.007 0.008-0.010 0.006-0.007 0.012-0.014 0.017-0.021s0.008-0.015 0.012-0.022c0.003-0.005 0.005-0.009 0.007-0.014 0.004-0.009 0.006-0.019 0.009-0.029 0.001-0.003 0.003-0.006 0.003-0.010 0.003-0.014 0.004-0.028 0.004-0.043v-18.034c-0.001-0.027-0.006-0.055-0.017-0.080zM20.206 1.723l2.823 2.823h-2.823v-2.823zM23.325 22.703l-1.384 1.384-1.446-1.445c-0.081-0.081-0.214-0.081-0.295 0l-1.445 1.445-1.445-1.445c-0.082-0.081-0.214-0.081-0.296 0l-1.446 1.445-1.445-1.444c0-0-0-0-0-0.001-0.041-0.041-0.094-0.061-0.148-0.061s-0.107 0.020-0.148 0.061c-0 0-0 0-0 0l-1.445 1.445-1.446-1.445c-0.082-0.081-0.214-0.081-0.296 0l-1.445 1.445-1.445-1.445c-0.082-0.081-0.214-0.081-0.296 0l-1.446 1.445-1.384-1.384v-21.277h15.164v3.328c0 0.115 0.094 0.209 0.209 0.209h3.328l0 17.74z"></path>
<path d="M6.183 3.404h6.847c0.115 0 0.209-0.094 0.209-0.209s-0.094-0.209-0.209-0.209h-6.847c-0.116 0-0.209 0.094-0.209 0.209s0.093 0.209 0.209 0.209z"></path>
<path d="M6.183 4.697h10.98c0.115 0 0.209-0.094 0.209-0.209s-0.094-0.209-0.209-0.209h-10.98c-0.116 0-0.209 0.094-0.209 0.209s0.093 0.209 0.209 0.209z"></path>
<path d="M5.974 5.858v6.77c0 0.115 0.093 0.209 0.209 0.209h15.583c0.115 0 0.209-0.094 0.209-0.209v-6.77c0-0.115-0.093-0.209-0.209-0.209h-15.583c-0.116 0-0.209 0.094-0.209 0.209zM10.595 6.067h10.961v1.799h-10.961v-1.799zM10.595 8.285h10.961v1.799h-10.961v-1.799zM10.595 10.502h10.961v1.917h-10.961v-1.917zM6.392 6.067h3.785v1.799h-3.785v-1.799zM6.392 8.285h3.785v1.799h-3.785v-1.799zM6.392 10.502h3.785v1.917h-3.785v-1.917z"></path>
<path d="M21.766 13.778h-15.583c-0.116 0-0.209 0.094-0.209 0.209v6.77c0 0.115 0.093 0.209 0.209 0.209s0.209-0.093 0.209-0.209v-2.126h3.785v2.126c0 0.115 0.094 0.209 0.209 0.209s0.209-0.093 0.209-0.209v-2.126h10.961v2.126c0 0.115 0.094 0.209 0.209 0.209s0.209-0.093 0.209-0.209v-6.77c0-0.115-0.093-0.209-0.208-0.209zM10.177 18.213h-3.785v-1.798h3.785v1.798zM10.177 15.996h-3.785v-1.799h3.785v1.799zM21.556 18.213h-10.961v-1.798h10.961v1.798zM21.556 15.996h-10.961v-1.799h10.961v1.799z"></path>
<path d="M3.215 1.008c-0.115 0-0.209 0.094-0.209 0.209v21.573c0 0.115 0.094 0.209 0.209 0.209s0.209-0.094 0.209-0.209v-21.573c0-0.115-0.094-0.209-0.209-0.209z"></path>
<path d="M2.065 1.008c-0.115 0-0.209 0.094-0.209 0.209v21.573c0 0.115 0.094 0.209 0.209 0.209s0.209-0.094 0.209-0.209v-21.573c0-0.115-0.093-0.209-0.209-0.209z"></path>
</svg>