<svg aria-hidden="true" style="position: absolute; width: 0; height: 0; overflow: hidden;" version="1.1" xmlns="http://www.w3.org/2000/svg" xmlns:xlink="http://www.w3.org/1999/xlink">
<defs>
<symbol id="audio-book-icon" viewBox="2 1 23 22">
<path d="M2.048 21.84h8.219c0.416 0.864 1.288 1.422 2.271 1.422h0.519c0.985 0 1.855-0.558 2.272-1.422h8.223c0.847 0 1.536-0.689 1.536-1.536v-14.72c0-0.847-0.689-1.536-1.536-1.536h-0.829v-0.686c0-0.565-0.459-1.024-1.024-1.024h-17.802c-0.564 0-1.024 0.459-1.024 1.024v0.686h-0.825c-0.847 0-1.536 0.689-1.536 1.536v14.72c0 0.847 0.689 1.536 1.536 1.536zM21.698 18.681h-8.386v-11.898c1.938 0.253 3.441 1.912 3.441 3.918v0.462l-0.122-0.027c-0.132-0.028-0.27-0.005-0.386 0.069s-0.195 0.189-0.224 0.322l-0.815 3.709c-0.060 0.276 0.114 0.549 0.39 0.609l1.761 0.388c0.091 0.019 0.183 0.029 0.276 0.029 0.619 0 1.147-0.424 1.282-1.031l0.471-2.145c0.155-0.704-0.291-1.405-0.997-1.562l-0.613-0.135v-0.687c0-2.572-1.96-4.694-4.465-4.953v-2.386h8.387l-0.001 15.319zM16.912 12.247l1.258 0.277c0.157 0.035 0.253 0.184 0.218 0.341l-0.471 2.145c-0.034 0.155-0.206 0.251-0.341 0.223l-1.259-0.277 0.596-2.708zM3.897 3.362h8.392v2.386c-2.507 0.256-4.47 2.38-4.47 4.954v0.687l-0.614 0.136c-0.342 0.076-0.634 0.28-0.822 0.574-0.189 0.295-0.25 0.646-0.175 0.987l0.471 2.143c0.128 0.6 0.667 1.035 1.283 1.035 0.092 0 0.185-0.010 0.28-0.030l1.754-0.387c0.275-0.061 0.45-0.334 0.389-0.609l-0.815-3.709c-0.029-0.133-0.11-0.248-0.225-0.322s-0.254-0.097-0.386-0.069l-0.117 0.026v-0.461c0-2.008 1.505-3.668 3.446-3.919v11.899h-8.392v-15.319zM8.68 12.247l0.596 2.708-1.252 0.277c-0.154 0.035-0.311-0.067-0.344-0.22l-0.471-2.147c-0.017-0.075-0.003-0.151 0.037-0.214s0.106-0.109 0.18-0.126l1.254-0.277zM1.536 5.584c0-0.282 0.23-0.512 0.512-0.512h0.825v13.609c0 0.565 0.459 1.024 1.024 1.024h17.802c0.564 0 1.024-0.459 1.024-1.024v-13.609h0.829c0.282 0 0.512 0.23 0.512 0.512v14.72c0 0.282-0.23 0.512-0.512 0.512h-8.571c-0.225 0-0.424 0.147-0.489 0.362-0.194 0.634-0.771 1.060-1.434 1.060h-0.519c-0.661 0-1.237-0.424-1.437-1.066-0.068-0.212-0.265-0.356-0.488-0.356h-8.566c-0.282 0-0.512-0.23-0.512-0.512v-14.72z"></path>
</symbol>
<symbol id="check-icon" viewBox="0 0 26 32">
<title>check-icon</title>
<path d="M20.463 5.366c-0.762 0.341-1.492 0.757-2.189 1.221-1.402 0.922-2.683 2.020-3.885 3.191-1.201 1.174-2.32 2.43-3.377 3.736-0.264 0.327-1.449 1.781-1.449 1.781l-4.925-7.38-1.859 5.153 6.66 7.943c0.647-1.309 1.269-2.602 1.88-3.725 0.152-0.286 0.311-0.554 0.462-0.827 0 0 0.782-1.374 0.987-1.72 0.822-1.384 1.71-2.733 2.689-4.014 0.979-1.279 2.044-2.499 3.251-3.572 0.601-0.54 1.24-1.039 1.925-1.474 0.684-0.435 1.41-0.817 2.187-1.091-0.808 0.159-1.597 0.435-2.357 0.777z"></path>
</symbol>
<symbol id="community-icon" viewBox="2 0 22 25">         
<path d="M1.918 10.148v2.182c0 0.117 0.054 0.228 0.146 0.3 1.491 1.174 3.362 1.82 5.268 1.82 0.571 0 1.142-0.060 1.7-0.172 1.19 0.526 2.457 0.795 3.768 0.795 1.315 0 2.582-0.269 3.768-0.795 2.382 0.481 4.919-0.036 6.968-1.648 0.092-0.073 0.146-0.183 0.146-0.3v-2.182c0-0.32-0.159-0.612-0.443-0.791l-2.98-1.676c0.652-0.827 1.138-2.005 1.222-3.015 0.247-1.739-1.17-3.58-3.21-3.58-0.858 0-1.673 0.353-2.271 0.945-0.021 0.021-0.044 0.038-0.064 0.059-0.018 0.019-0.033 0.042-0.051 0.061-0.012 0.013-0.022 0.028-0.034 0.041-0.583-1.063-1.704-1.72-3.024-1.72-0.128 0-0.254 0.009-0.379 0.021-0.008-0-0.014-0.004-0.022-0.004-0.071 0-0.221 0.019-0.301 0.042-0.012 0.003-0.020 0.012-0.032 0.016-0.986 0.199-1.821 0.797-2.322 1.661-0.602-0.702-1.487-1.123-2.449-1.123-3.011 0-4.347 3.554-1.97 6.612l-3.007 1.67c-0.267 0.169-0.426 0.461-0.426 0.781zM16.561 13.438c-0.065 0.032-0.129 0.065-0.194 0.095l-0 0c-0 0-0.001 0.001-0.001 0.001-1.119 0.514-2.319 0.775-3.566 0.775-1.243 0-2.443-0.261-3.567-0.776-0.547-0.249-1.076-0.565-1.576-0.941v-2.212c0-0.075 0.037-0.142 0.079-0.17l3.5-1.945c0.435 0.37 0.992 0.641 1.568 0.641 0.555 0 1.155-0.275 1.581-0.65l3.457 1.942c0.064 0.041 0.1 0.107 0.1 0.183v2.211c-0.44 0.331-0.904 0.612-1.382 0.846zM22.847 10.012c0.045 0.028 0.071 0.078 0.071 0.136v1.994c-1.517 1.138-3.342 1.655-5.191 1.525 0.284-0.178 0.594-0.398 0.834-0.586 0.092-0.072 0.146-0.183 0.146-0.301v-2.4c0-0.335-0.168-0.644-0.47-0.837l-1.837-1.032 0.447-0.247c0.542 0.442 1.007 0.573 1.424 0.573 0.51 0 1.048-0.25 1.447-0.585l3.128 1.76zM18.271 1.849c1.064 0 1.998 0.695 2.328 1.651-0.642-0.076-1.269-0.393-1.724-0.88-0.082-0.088-0.199-0.134-0.32-0.119-0.119 0.013-0.226 0.081-0.287 0.184-0.436 0.73-1.15 1.218-1.963 1.356 0-0.001-0-0.001-0-0.002 0.004-0.166-0.006-0.335-0.025-0.503-0.002-0.017-0.004-0.034-0.006-0.051-0.025-0.191-0.082-0.431-0.094-0.469 0.434-0.695 1.24-1.166 2.091-1.166zM16.221 4.82c0.965-0.106 1.838-0.591 2.438-1.358 0.591 0.485 1.341 0.778 2.082 0.814-0.006 1.381-1.134 3.796-2.47 3.796-1.030 0-1.91-1.474-2.239-2.495 0.084-0.263 0.144-0.516 0.189-0.758zM16.299 7.694l-0.683 0.378-0.689-0.387c0.256-0.318 0.49-0.688 0.691-1.089 0.193 0.406 0.424 0.778 0.681 1.098zM15.269 5.453c-0.368 1.099-1.314 2.689-2.465 2.689-1.342 0-2.486-2.207-2.704-3.618 0.058-0.014 1.872 0.097 3.12-1.542 0.634 0.53 1.488 0.881 2.32 0.916 0.010 0.498-0.111 1.084-0.271 1.555zM12.826 1.235c2.142 0 2.55 1.843 2.583 1.882-0.777-0.079-1.485-0.459-1.975-0.983-0.082-0.088-0.201-0.132-0.321-0.119s-0.226 0.082-0.288 0.185c-0.424 0.718-1.090 1.224-1.86 1.439-0.297 0.083-0.619 0.121-0.899 0.118 0.105-1.404 1.23-2.523 2.759-2.523zM9.984 6.588c0.198 0.397 0.434 0.775 0.703 1.108l-0.675 0.375-0.699-0.393c0.265-0.338 0.49-0.716 0.67-1.090zM7.322 1.849c0.867 0 1.661 0.44 2.103 1.166-0.022 0.077-0.082 0.384-0.090 0.422-0.532-0.127-1.020-0.41-1.403-0.819-0.082-0.088-0.199-0.131-0.321-0.119-0.119 0.013-0.226 0.082-0.287 0.185-0.511 0.862-1.449 1.398-2.448 1.398 0.122-1.254 1.17-2.235 2.446-2.235zM4.91 4.846c1.098-0.011 2.135-0.528 2.807-1.384 0.459 0.378 1.004 0.627 1.584 0.741 0.022 0.443 0.138 0.981 0.27 1.378-0.211 0.647-0.616 1.418-1.118 1.931-0.003 0.003-0.007 0.005-0.011 0.008-0.314 0.331-0.761 0.554-1.113 0.554-1.228 0-2.189-1.933-2.419-3.227zM2.682 10.148c0-0.058 0.026-0.107 0.052-0.125l3.171-1.76c0.19 0.158 0.234 0.177 0.272 0.204l-0 0c0.373 0.248 0.715 0.372 1.182 0.372 0.497 0 0.95-0.211 1.348-0.535 0.022-0.018 0.047-0.035 0.068-0.052l0.453 0.255-1.885 1.049c-0.282 0.182-0.45 0.49-0.45 0.825v2.4c0 0.117 0.054 0.228 0.146 0.3 0.244 0.192 0.56 0.415 0.834 0.587-1.876 0.128-3.701-0.407-5.191-1.526v-1.994z"></path>
<path d="M24.468 16.484c-0.47-0.296-1.049-0.326-1.547-0.085l-4.715 2.278c-0.016-0.883-0.737-1.596-1.623-1.596l-2.704 0.001c-1.333-1.159-3.037-1.869-4.586-1.906-1.528-0.036-2.899-0.046-3.539-0.049v-0.772h-5.372v8.874h5.372v-1.063c1.473 0.845 5.347 2.963 7.185 2.963 0.042 0 0.082-0.001 0.122-0.003 3.233-0.181 10.857-5.547 11.36-5.903 0.492-0.285 0.797-0.814 0.797-1.384 0-0.554-0.28-1.060-0.75-1.355zM4.99 22.465h-3.844v-7.346h3.844v7.346zM24.028 18.567c-0.012 0.006-0.023 0.013-0.034 0.021-0.079 0.056-7.922 5.603-10.976 5.774-0.030 0.002-0.061 0.002-0.093 0.002-1.612 0-5.543-2.121-7.171-3.083v-5.391c0.637 0.003 2.001 0.013 3.521 0.049 1.415 0.034 2.987 0.71 4.204 1.807l0.109 0.099 2.996-0.001c0.475 0 0.862 0.387 0.862 0.862s-0.387 0.862-0.862 0.862h-5.503v0.764h5.503c0.527 0 0.992-0.256 1.29-0.647l5.381-2.599c0.264-0.129 0.559-0.112 0.808 0.044s0.391 0.414 0.391 0.707c0 0.302-0.163 0.58-0.426 0.728z"></path>
<path d="M12.418 9.84h0.764v0.709h-0.764v-0.709z"></path>
<path d="M12.418 11.253h0.764v0.709h-0.764v-0.709z"></path>
<path d="M12.418 12.666h0.764v0.709h-0.764v-0.709z"></path>
</symbol>
<symbol id="dollar-icon" viewBox="0 0 22 26">
<path d="M0.433 10.994c0 0.285-0.433 0.285-0.433 0 0-6.070 4.923-10.994 10.994-10.994 6.073 0 10.994 4.923 10.994 10.994 0 0.285-0.431 0.285-0.431 0 0-4.103-6.743-4.106-6.743 0 0 0.285-0.444 0.285-0.444 0 0-4.093-6.753-4.093-6.753 0 0 0.285-0.444 0.285-0.444 0 0-4.085-6.74-4.114-6.74 0zM7.212 9.4c0.117-2.362 0.488-4.479 1.028-6.096 0.431-1.285 0.976-2.26 1.594-2.808-4.635 0.506-8.388 4.020-9.226 8.577 1.596-2.302 5.281-2.118 6.605 0.327zM14.336 9.294c-0.119-2.271-0.48-4.303-0.999-5.852-1.339-4.010-3.348-4.010-4.687 0-0.519 1.549-0.877 3.582-0.999 5.852 1.44-2.447 5.245-2.447 6.685 0zM21.38 9.073c-0.836-4.557-4.588-8.071-9.226-8.577 0.62 0.548 1.163 1.523 1.594 2.808 0.54 1.617 0.911 3.735 1.028 6.096 1.331-2.458 5.027-2.603 6.605-0.327z"></path>
<path d="M9.551 16.023v-2.232c-0.402 0.267-0.719 0.68-0.719 1.183 0 0.491 0.322 0.815 0.719 1.049zM9.984 16.716c-0.771-0.353-1.583-0.766-1.583-1.741 0-1.007 0.766-1.51 1.583-1.887v3.628z"></path>
<path d="M12.437 19.392v2.258c0.407-0.27 0.727-0.685 0.727-1.189 0-0.496-0.327-0.831-0.727-1.069zM12.006 18.697c0.773 0.358 1.591 0.784 1.591 1.765 0 1.010-0.771 1.513-1.591 1.887v-3.652z"></path>
<path d="M12.437 11.251c1.775 0.41 3.6 1.739 3.6 3.724 0 1.7-2.873 1.638-2.873 0 0-0.506-0.319-0.921-0.727-1.189v3.177c1.643 0.537 3.605 1.5 3.605 3.498 0 1.988-1.825 3.314-3.605 3.722-0.008 1.892-2.881 1.889-2.886-0.003-1.012-0.234-1.892-0.706-2.528-1.331-0.667-0.659-1.061-1.487-1.061-2.388 0-1.674 2.87-1.674 2.87 0 0 0.501 0.317 0.914 0.719 1.181v-3.174c-1.63-0.527-3.602-1.518-3.602-3.498 0-1.988 1.824-3.314 3.602-3.722 0.008-1.892 2.881-1.889 2.886 0.003zM9.984 11.256v0.345c-1.69 0.335-3.605 1.417-3.605 3.369 0 1.876 2.102 2.717 3.605 3.182v4.194c-0.812-0.371-1.583-0.872-1.583-1.884 0-1.106-2.009-1.106-2.009 0 0 0.781 0.348 1.503 0.934 2.079 0.745 0.737 1.648 1.087 2.658 1.287v0.348c0 1.331 2.022 1.331 2.022 0v-0.345c1.695-0.337 3.602-1.42 3.602-3.369 0-1.895-2.097-2.709-3.602-3.184v-4.191c0.815 0.371 1.591 0.872 1.591 1.889 0 1.077 2.006 1.121 2.006 0 0-1.949-1.905-3.034-3.597-3.371v-0.348c0-1.331-2.022-1.331-2.022 0z"></path>
</symbol>
<symbol id="student-icon" viewBox="2 0 21 25">  
<path d="M2.211 25.028c2.723 0 18.478 0 21.198 0 0.105-2.407-0.068-6.401-1.554-8.302l-0.054-0.068-3.248-1.624c0.071-0.237 0.105-0.454 0.119-0.613 0.016-0.191-0.010-0.371-0.079-0.534-0.536-1.277-1.67-1.948-2.293-2.235 0.19-0.381 0.313-0.791 0.372-1.209 0.353-0.099 0.637-0.378 0.73-0.749l0.379-1.534c0.067-0.271 0.025-0.551-0.119-0.79-0.062-0.103-0.142-0.189-0.233-0.264 1.069-2.418-0.721-4.697-0.819-4.817-1.939-2.087-4.388-1.697-4.518-1.674-3.535 0.737-4.899 3.434-4.129 6.598-0.228 0.252-0.324 0.602-0.239 0.946l0.381 1.535c0.092 0.369 0.374 0.647 0.725 0.747 0.108 0.766 0.434 1.459 0.912 2.017v1.216c-5.072 2.586-1.858 0.936-5.923 2.984-0.008 0.038-1.907 2.048-1.625 8.006l0.017 0.364zM22.673 24.264h-3.489v-1.459l2.307-5.26c1.156 1.91 1.199 5.558 1.181 6.719zM17.911 14.356c-0.135 1.54-0.983 1.075-1.506 2.261-0.412-0.451-0.536-0.992-0.425-1.57 0.2-1.063-0.451-1.378-0.29-2.495l0.024-0.026v-0.004c0.014-0.015 0.142-0.168 0.179-0.216 1.38 0.599 2.045 1.713 2.018 2.049zM10.506 13.145c0.641 0.443 1.414 0.704 2.246 0.704 0.784 0 1.528-0.227 2.166-0.645 0.088 0.878 0.433 1.054 0.311 1.7-0.023 0.12-0.035 0.238-0.043 0.354l-2.376 2.666-3.037-3.41 0.733-0.381v-0.988zM9.551 9.882v-1.478c0-0.544 0-2.704 0-2.598 0.37-0.681 0.874-1.175 1.5-1.471 1.678 0.945 3.609 2.356 4.904 3.776-0.001 1.808 0.005 1.813-0.007 1.962l-0.001 0.009c-0.101 1.642-1.457 3.003-3.196 3.003-1.69 0-3.094-1.321-3.195-3.019-0.005-0.061-0.006-0.122-0.006-0.184zM9.078 14.884l3.732 4.19 2.506-2.812c0.057 0.164 0.138 0.319 0.229 0.469l-2.735 3.406-4.079-5.080 0.346-0.173zM16.72 9.267v-1.18c0.034-0.038 0.318-0.364 0.285-0.325 0.016 0.598 0.081-0.108-0.285 1.506zM12.234 1.367c0.152 0.009 2.188-0.308 3.798 1.422 0.063 0.079 1.374 1.76 0.847 3.599-0.18-0.818-0.494-1.867-0.991-2.368l-0.543 0.538c0.49 0.494 0.812 1.999 0.935 2.78-2.248-2.342-5.148-3.825-5.188-3.85-0.145 0.090-1.373 0.322-2.264 2.047l-0.043 0.082v1.267c-0.038 0-0.151 0.002-0.112 0.001-0.566-2.722 0.518-4.885 3.559-5.519zM8.594 7.672l0.193 0.778v0.818l-0.321-1.292c-0.047-0.193 0.096-0.266 0.128-0.304zM8.032 15.406l4.778 5.951 3.233-4.026c0.352 0.313 0.521 0.358 1.266 0.74l-0.252-0.849c-0.064-0.216 0.189-0.562 0.341-0.721 0.341-0.184 0.625-0.446 0.837-0.77l2.638 1.319-2.454 5.595v1.619h-11.219v-1.62l-2.456-5.595 3.287-1.643zM4.129 17.546l2.308 5.258v1.459h-3.489c-0.018-1.161 0.026-4.807 1.181-6.718z"></path>
</symbol>
<symbol id="fire-icon" viewBox="2 0 23 26">   
<path d="M20.635 13.26c-0.218-0.493-0.52-0.979-0.96-1.54-1.111-1.408-1.449-4.548-1.453-4.578-0.015-0.151-0.12-0.275-0.26-0.32-0.143-0.045-0.297-0.004-0.399 0.109-1.325 1.495-0.768 3.802-0.467 4.725 0.083 0.252 0.173 0.55 0.237 0.851 0.489 2.436-0.456 3.539-0.678 3.761-0.215 0.060-0.361 0.030-0.497-0.117-0.467-0.516-0.621-2.206-0.403-4.408 0.045-0.448 0.034-0.851-0.030-1.227-0.46-2.707-2.149-4.443-2.579-5.052-1.182-1.762-1.303-4.695-1.306-4.721-0.004-0.139-0.083-0.264-0.207-0.324-0.12-0.060-0.267-0.053-0.38 0.026-1.973 1.352-1.803 4.608-1.528 6.426 0.064 0.422 0.188 0.851 0.403 1.393 0.764 1.939-0.151 4.442-0.158 4.465s-0.015 0.041-0.019 0.064c-0.117 0.617-0.312 0.986-0.531 0.986-0.023 0-0.045-0.004-0.072-0.011-0.267-0.056-0.407-0.343-0.41-0.591-0.015-3.211-3.211-4.292-3.245-4.303-0.143-0.045-0.301-0.004-0.399 0.113-0.102 0.117-0.12 0.279-0.053 0.414 0.038 0.079 0.158 0.425 0.075 1.649-0.072 1.099-0.271 2.187-0.591 3.23-0.76 2.5-0.64 4.868-0.632 4.981 0.585 6.412 9.729 7.535 15.157 3.923 0.595-0.395 1.080-0.847 1.438-1.344 2.003-2.786 0.825-6.569-0.053-8.58zM6.725 19.386c0.011 0.207-0.147 0.384-0.354 0.395h-0.023c-0.2 0-0.365-0.154-0.376-0.354-0.034-0.55-0.026-1.126 0.015-1.751 0.015-0.207 0.196-0.361 0.403-0.35 0.207 0.015 0.365 0.196 0.35 0.403-0.041 0.595-0.049 1.137-0.015 1.657zM6.909 16.050c-0.023 0.192-0.184 0.331-0.373 0.331-0.015 0-0.030 0-0.049-0.004-0.203-0.026-0.35-0.211-0.328-0.418l0.181-1.453c0.026-0.203 0.211-0.35 0.422-0.328 0.207 0.026 0.354 0.215 0.328 0.422l-0.181 1.449z"></path>
<path d="M18.088 5.527c-0.205-0.032-0.346-0.224-0.314-0.429 0.024-0.153 0.16-0.936 0.529-1.33 0.142-0.152 0.38-0.16 0.532-0.017s0.159 0.38 0.017 0.532c-0.156 0.167-0.289 0.644-0.334 0.929-0.032 0.203-0.221 0.346-0.43 0.314z"></path>
<path d="M4.364 7.402c-0.072-0.28-0.251-0.742-0.423-0.892-0.156-0.137-0.172-0.375-0.035-0.531s0.374-0.173 0.531-0.035c0.406 0.356 0.618 1.122 0.656 1.272 0.051 0.201-0.070 0.406-0.271 0.458-0.206 0.052-0.407-0.073-0.458-0.271z"></path>
</symbol>
<symbol id="mobile-learn-icon" viewBox="0 0 25 25">
<path d="M23.211 0.668h-11.845c-0.771 0-1.398 0.627-1.398 1.398v4.903l-8.8 3.693c-0.1 0.042-0.167 0.136-0.175 0.244s0.046 0.211 0.138 0.266l1.122 0.672v7.157c-0.574 0.131-1.004 0.644-1.004 1.259v0.69c0 0.158 0.128 0.287 0.287 0.287h2.010c0.158 0 0.287-0.128 0.287-0.287v-0.69c0-0.614-0.431-1.127-1.005-1.258v-6.815l0.887 0.531c-0.027 0.205-0.003-0.357-0.013 3.332 0 1.213 3.106 1.862 6.266 1.899v5.586c0 0.289 0.088 0.557 0.239 0.78 0.251 0.372 0.677 0.617 1.158 0.617h11.845c0.77 0 1.397-0.627 1.397-1.397-0 0.038-0.002-1.183 0-21.469 0-0.761-0.629-1.399-1.396-1.399zM3.259 20.261v0.403h-1.436v-0.403c0-0.397 0.321-0.72 0.716-0.72 0.397 0 0.72 0.323 0.72 0.72zM23.211 24.357h-11.845c-0.284 0-0.535-0.144-0.684-0.362-0.089-0.131-0.141-0.29-0.141-0.46v-1.936h13.491v1.937c0 0.449-0.374 0.822-0.822 0.822zM24.033 21.026h-13.492v-3.074c1.543-0.018 6.27-0.357 6.27-1.901-0.002-2.317 0.004-3.257-0.007-3.337l2.573-1.541c0.093-0.056 0.146-0.159 0.138-0.266s-0.075-0.202-0.175-0.244l-8.799-3.693v-2.393h13.492v16.45zM10.255 14.148c-1.59 0-4.65 0.205-5.98 1.073 0.008-2.656-0.092-2.483 0.235-2.708 0.826-0.608 3.188-1.033 5.745-1.033 1.115 0 5.983 0.307 5.983 1.337v2.404c-1.342-0.876-4.387-1.074-5.983-1.074zM10.542 2.066c0-0.454 0.37-0.824 0.824-0.824h11.845c0.455 0 0.822 0.375 0.822 0.824v1.936h-13.491v-1.936zM10.255 7.471l8.342 3.502-2.067 1.237c-1.099-1.090-4.734-1.301-6.275-1.301-1.543 0-5.179 0.212-6.275 1.302l-2.068-1.237 8.343-3.502zM4.275 16.051c0-0.464 2.054-1.329 5.98-1.329 3.928 0 5.983 0.866 5.983 1.329s-2.055 1.33-5.983 1.33c-3.926 0-5.98-0.866-5.98-1.33z"></path>
<path d="M17.288 22.031c-0.523 0-0.948 0.425-0.948 0.948s0.425 0.948 0.948 0.948c0.523 0 0.948-0.425 0.948-0.948s-0.425-0.948-0.948-0.948zM17.288 23.354c-0.207 0-0.375-0.168-0.375-0.375s0.168-0.375 0.375-0.375c0.207 0 0.375 0.168 0.375 0.375s-0.168 0.375-0.375 0.375z"></path>
<path d="M16.195 2.336h2.186v0.573h-2.186v-0.573z"></path>
</symbol>
<symbol id="book-icon" viewBox="2 3 23 20">
<path d="M3.719 6.407h7.654v0.573h-7.654v-0.573z"></path>
<path d="M4.865 8.544h6.508v0.573h-6.508v-0.573z"></path>
<path d="M3.719 10.681h7.654v0.573h-7.654v-0.573z"></path>
<path d="M4.865 12.818h6.508v0.573h-6.508v-0.573z"></path>
<path d="M3.719 14.955h7.654v0.573h-7.654v-0.573z"></path>
<path d="M4.865 17.092h6.508v0.573h-6.508v-0.573z"></path>
<path d="M14.226 6.407h7.654v0.573h-7.654v-0.573z"></path>
<path d="M14.226 8.544h6.508v0.573h-6.508v-0.573z"></path>
<path d="M14.226 10.681h7.654v0.573h-7.654v-0.573z"></path>
<path d="M14.226 12.818h6.508v0.573h-6.508v-0.573z"></path>
<path d="M14.226 14.955h7.654v0.573h-7.654v-0.573z"></path>
<path d="M14.226 17.092h6.508v0.573h-6.508v-0.573z"></path>
<path d="M24.645 5.754h-1.051v-1.578c0-0.158-0.128-0.287-0.287-0.287h-8.566c-0.836 0-1.561 0.452-1.941 1.128-0.38-0.677-1.105-1.128-1.941-1.128h-8.566c-0.158 0-0.287 0.128-0.287 0.287v1.578h-1.051c-0.158 0-0.287 0.128-0.287 0.287v15.383c0 0.158 0.128 0.287 0.287 0.287 2.877 0 20.802 0 23.69 0 0.158 0 0.287-0.128 0.287-0.287v-15.383c0-0.158-0.128-0.287-0.287-0.287zM14.741 4.463h8.28c0 2.566 0 9.326 0 15.349h-8.891c-0.394 0-0.788 0.166-1.043 0.382v-14.080c0-0.915 0.732-1.651 1.654-1.651zM2.579 4.463h8.28c0.896 0 1.621 0.697 1.651 1.588 0 0.012 0.002 0.051 0.004 0.063v14.079c-0.254-0.215-0.644-0.381-1.039-0.381h-8.895c0-6.020 0-12.783 0-15.349zM1.242 6.328h0.764v13.771c0 0.158 0.128 0.287 0.287 0.287h9.182c0.437 0 0.859 0.287 0.994 0.753h-11.226v-14.81zM24.358 21.137h-11.226c0.136-0.468 0.554-0.753 0.998-0.753h9.178c0.158 0 0.287-0.128 0.287-0.287v-13.771h0.764v14.81z"></path>
</symbol>
<symbol id="program-icon" viewBox="2 0 23 24">
<path d="M23.727 4.675c0-0-0-0.001-0-0.002-0.005-0.012-0.011-0.023-0.018-0.033-0.001-0.001-0.001-0.002-0.002-0.002-0.007-0.011-0.015-0.021-0.025-0.031l-3.537-3.537c-0.009-0.009-0.019-0.017-0.030-0.024-0.002-0.002-0.005-0.003-0.007-0.004-0.009-0.005-0.017-0.010-0.027-0.014-0.003-0.001-0.005-0.003-0.008-0.003-0.023-0.009-0.048-0.014-0.073-0.015-0.002 0-0.003-0-0.004-0h-15.582c-0.115 0-0.209 0.094-0.209 0.209v21.573c0 0.014 0.001 0.027 0.004 0.041 0.001 0.006 0.003 0.011 0.005 0.017 0.002 0.007 0.004 0.015 0.007 0.022s0.006 0.013 0.010 0.019c0.003 0.005 0.006 0.012 0.009 0.017 0.007 0.011 0.015 0.020 0.024 0.029 0.001 0.001 0.001 0.002 0.002 0.002l1.593 1.593c0.082 0.082 0.214 0.082 0.296 0l1.446-1.445 1.445 1.445c0.041 0.041 0.094 0.061 0.148 0.061s0.107-0.020 0.148-0.061l1.445-1.445 1.446 1.445c0.082 0.082 0.214 0.082 0.296 0l1.445-1.445 1.445 1.445c0.082 0.082 0.214 0.082 0.295 0l1.446-1.445 1.445 1.445c0.041 0.041 0.094 0.061 0.148 0.061s0.107-0.020 0.148-0.061l1.445-1.445 1.446 1.445c0.081 0.082 0.214 0.082 0.295 0l1.593-1.593c0.003-0.003 0.005-0.007 0.008-0.010 0.006-0.007 0.012-0.014 0.017-0.021s0.008-0.015 0.012-0.022c0.003-0.005 0.005-0.009 0.007-0.014 0.004-0.009 0.006-0.019 0.009-0.029 0.001-0.003 0.003-0.006 0.003-0.010 0.003-0.014 0.004-0.028 0.004-0.043v-18.034c-0.001-0.027-0.006-0.055-0.017-0.080zM20.206 1.723l2.823 2.823h-2.823v-2.823zM23.325 22.703l-1.384 1.384-1.446-1.445c-0.081-0.081-0.214-0.081-0.295 0l-1.445 1.445-1.445-1.445c-0.082-0.081-0.214-0.081-0.296 0l-1.446 1.445-1.445-1.444c0-0-0-0-0-0.001-0.041-0.041-0.094-0.061-0.148-0.061s-0.107 0.020-0.148 0.061c-0 0-0 0-0 0l-1.445 1.445-1.446-1.445c-0.082-0.081-0.214-0.081-0.296 0l-1.445 1.445-1.445-1.445c-0.082-0.081-0.214-0.081-0.296 0l-1.446 1.445-1.384-1.384v-21.277h15.164v3.328c0 0.115 0.094 0.209 0.209 0.209h3.328l0 17.74z"></path>
<path d="M6.183 3.404h6.847c0.115 0 0.209-0.094 0.209-0.209s-0.094-0.209-0.209-0.209h-6.847c-0.116 0-0.209 0.094-0.209 0.209s0.093 0.209 0.209 0.209z"></path>
<path d="M6.183 4.697h10.98c0.115 0 0.209-0.094 0.209-0.209s-0.094-0.209-0.209-0.209h-10.98c-0.116 0-0.209 0.094-0.209 0.209s0.093 0.209 0.209 0.209z"></path>
<path d="M5.974 5.858v6.77c0 0.115 0.093 0.209 0.209 0.209h15.583c0.115 0 0.209-0.094 0.209-0.209v-6.77c0-0.115-0.093-0.209-0.209-0.209h-15.583c-0.116 0-0.209 0.094-0.209 0.209zM10.595 6.067h10.961v1.799h-10.961v-1.799zM10.595 8.285h10.961v1.799h-10.961v-1.799zM10.595 10.502h10.961v1.917h-10.961v-1.917zM6.392 6.067h3.785v1.799h-3.785v-1.799zM6.392 8.285h3.785v1.799h-3.785v-1.799zM6.392 10.502h3.785v1.917h-3.785v-1.917z"></path>
<path d="M21.766 13.778h-15.583c-0.116 0-0.209 0.094-0.209 0.209v6.77c0 0.115 0.093 0.209 0.209 0.209s0.209-0.093 0.209-0.209v-2.126h3.785v2.126c0 0.115 0.094 0.209 0.209 0.209s0.209-0.093 0.209-0.209v-2.126h10.961v2.126c0 0.115 0.094 0.209 0.209 0.209s0.209-0.093 0.209-0.209v-6.77c0-0.115-0.093-0.209-0.208-0.209zM10.177 18.213h-3.785v-1.798h3.785v1.798zM10.177 15.996h-3.785v-1.799h3.785v1.799zM21.556 18.213h-10.961v-1.798h10.961v1.798zM21.556 15.996h-10.961v-1.799h10.961v1.799z"></path>
<path d="M3.215 1.008c-0.115 0-0.209 0.094-0.209 0.209v21.573c0 0.115 0.094 0.209 0.209 0.209s0.209-0.094 0.209-0.209v-21.573c0-0.115-0.094-0.209-0.209-0.209z"></path>
<path d="M2.065 1.008c-0.115 0-0.209 0.094-0.209 0.209v21.573c0 0.115 0.094 0.209 0.209 0.209s0.209-0.094 0.209-0.209v-21.573c0-0.115-0.093-0.209-0.209-0.209z"></path>
</symbol>
<svg id="burger-icon" width="21" height="14" viewBox="0 0 21 14" fill="none" xmlns="http://www.w3.org/2000/svg">
<path d="M0 1H20.5" stroke="black" stroke-width="2"/>
<path d="M0 7H20.5" stroke="black" stroke-width="2"/>
<path d="M0 13H20.5" stroke="black" stroke-width="2"/>
</svg>
<svg id="close-mobile-icon" width="17" height="17" viewBox="0 0 17 17" fill="none" xmlns="http://www.w3.org/2000/svg">
<path d="M1 15.4957L15.4957 1.00004" stroke="white" stroke-width="2"/>
<path d="M15.4956 15.4957L0.999917 1.00004" stroke="white" stroke-width="2"/>
</svg>
<symbol id="tell-icon" viewBox="0 0 32 32">
<path d="M4.657 0.002c-0.515 0.024-1.021 0.243-1.392 0.651l-2.595 2.852c0.004-0.008-0.010-0.007-0.084 0.097-0.039 0.054-0.070 0.113-0.090 0.176-1.056 3.364-0.348 7.064 1.376 10.584s4.475 6.888 7.633 9.651c3.158 2.764 6.721 4.926 10.119 5.999s6.692 1.058 9.133-0.713c0.026-0.020 0.051-0.041 0.075-0.065 0.064-0.064 0.066-0.072 0.056-0.062l0.010-0.012 2.582-2.84c0.742-0.816 0.682-2.098-0.134-2.84l-6.126-5.571c-0.816-0.742-2.098-0.683-2.84 0.133l-2.772 3.048c-2.25-0.652-4.173-1.756-6.023-3.439s-3.132-3.494-3.993-5.673l2.771-3.048c0.742-0.816 0.683-2.098-0.133-2.84l-6.126-5.571c-0.408-0.371-0.933-0.542-1.448-0.518l-0.001 0zM4.715 1.253c0.19-0.008 0.383 0.057 0.541 0.201l6.126 5.571c0.316 0.287 0.337 0.745 0.050 1.061l-3.063 3.366c-0.077 0.085-0.129 0.19-0.151 0.302s-0.013 0.229 0.027 0.337c0.93 2.537 2.429 4.618 4.493 6.495s4.275 3.174 6.889 3.859c0.111 0.029 0.228 0.027 0.339-0.005s0.21-0.095 0.287-0.18l3.064-3.367c0.287-0.315 0.744-0.336 1.060-0.049l6.127 5.571c0.316 0.287 0.336 0.744 0.049 1.060l-2.561 2.815c-2.003 1.438-4.826 1.519-7.986 0.521-3.173-1.002-6.617-3.076-9.666-5.744s-5.702-5.926-7.332-9.254c-1.614-3.294-2.199-6.624-1.312-9.559l2.502-2.75c0.143-0.158 0.33-0.242 0.52-0.251l0 0z"></path>
</symbol>
<symbol id="icon-upbtn" viewBox="0 0 32 32">
<path d="M32 18.451l-16-12.42-16 12.42v-5.064l16-12.42 16 12.42zM28 18v12h-8v-8h-8v8h-8v-12l12-9z"></path>
</symbol>
</defs>
</svg>