<svg id="tell-icon" version="1.1" xmlns="http://www.w3.org/2000/svg" width="26" height="32" viewBox="0 0 26 32">
<title>tell-icon</title>
<path d="M3.726 0.503c-0.412 0.020-0.817 0.195-1.114 0.521l-2.076 2.282c0.003-0.007-0.008-0.006-0.067 0.077-0.030 0.040-0.054 0.087-0.071 0.138l-0.001 0.004c-0.845 2.691-0.279 5.652 1.101 8.467s3.58 5.51 6.107 7.721c2.527 2.211 5.377 3.941 8.095 4.799s5.353 0.847 7.306-0.57c0.022-0.016 0.042-0.033 0.060-0.052l0-0c0.051-0.051 0.053-0.058 0.045-0.050l0.008-0.010 2.066-2.272c0.594-0.653 0.546-1.678-0.107-2.272l-4.901-4.457c-0.653-0.594-1.678-0.546-2.272 0.106l-2.217 2.438c-1.8-0.521-3.339-1.405-4.819-2.751s-2.506-2.795-3.195-4.538l2.217-2.438c0.594-0.653 0.546-1.678-0.106-2.272l-4.901-4.457c-0.326-0.297-0.746-0.434-1.158-0.414zM3.772 1.503c0.152-0.007 0.306 0.046 0.432 0.161l4.901 4.457c0.252 0.23 0.27 0.596 0.040 0.848l-2.45 2.693c-0.081 0.089-0.13 0.208-0.13 0.338 0 0.062 0.011 0.122 0.032 0.176l-0.001-0.003c0.744 2.029 1.943 3.694 3.594 5.196s3.42 2.539 5.511 3.088c0.038 0.010 0.082 0.017 0.128 0.017 0.148 0 0.28-0.063 0.372-0.164l0-0 2.451-2.694c0.23-0.252 0.595-0.269 0.848-0.039l4.901 4.457c0.252 0.23 0.269 0.595 0.039 0.848l-2.049 2.252c-1.603 1.15-3.861 1.215-6.389 0.417-2.538-0.801-5.294-2.461-7.733-4.596s-4.561-4.741-5.866-7.403c-1.291-2.635-1.76-5.299-1.049-7.647l2.002-2.2c0.115-0.126 0.264-0.194 0.416-0.201z"></path>
</svg>